<?xml version="1.0" encoding="iso-8859-1"?>
<!-- Generator: Adobe Illustrator 19.0.0, SVG Export Plug-In . SVG Version: 6.00 Build 0)  -->
<svg version="1.1" id="Capa_1" xmlns="http://www.w3.org/2000/svg" xmlns:xlink="http://www.w3.org/1999/xlink" x="0px" y="0px"
	 viewBox="0 0 512 512" style="enable-background:new 0 0 512 512;" xml:space="preserve">
<g>
	<path style="fill:#3F5C6C;" d="M423.724,482.163L380.292,512H0l0-31.25c-0.028-28.338,15.406-54.435,40.254-68.061l85.892-46.963
		c11.293-6.215,18.299-18.094,18.273-30.985v-35.31c-16.553-21.35-28.405-45.958-34.781-72.21
		c-8.288-5.335-13.307-14.507-13.33-24.364v-38.665c0.046-8.16,3.541-15.921,9.622-21.363V86.952c0,0-11.476-86.952,105.931-86.952
		c117.319,0,105.931,86.952,105.931,86.952v55.879c6.081,5.442,9.576,13.202,9.622,21.363v38.665c0.003,1.75-0.174,3.495-0.53,5.208
		L423.724,482.163z"/>
	<path style="fill:#24AE5F;" d="M504.72,242.258c4.407,2.062,7.239,6.471,7.28,11.337v66.539
		c-0.846,60.88-29.87,117.929-78.582,154.456l-43.392,34.075c-5.723,4.446-13.732,4.446-19.455,0l-43.392-34.075
		c-48.712-36.528-77.736-93.576-78.582-154.456v-66.539c0.041-4.866,2.873-9.275,7.28-11.337l112.642-54.202
		c7.448-3.568,16.112-3.568,23.56,0L504.72,242.258z"/>
	<circle style="fill:#FFFFFF;" cx="380.292" cy="327.592" r="68.484"/>
	<path style="fill:#24AE5F;" d="M368.323,356.56c-2.341-0.001-4.586-0.931-6.241-2.587L350.112,342
		c-2.23-2.23-3.101-5.48-2.285-8.526s3.195-5.425,6.241-6.241c3.046-0.816,6.296,0.055,8.526,2.285l5.728,5.733l29.681-29.681
		c3.447-3.447,9.036-3.447,12.483,0c3.447,3.447,3.447,9.036,0,12.483l-35.922,35.922
		C372.909,355.629,370.664,356.56,368.323,356.56z"/>
</g>
<g>
</g>
<g>
</g>
<g>
</g>
<g>
</g>
<g>
</g>
<g>
</g>
<g>
</g>
<g>
</g>
<g>
</g>
<g>
</g>
<g>
</g>
<g>
</g>
<g>
</g>
<g>
</g>
<g>
</g>
</svg>
