<?xml version="1.0" encoding="iso-8859-1"?>
<!-- Generator: Adobe Illustrator 19.0.0, SVG Export Plug-In . SVG Version: 6.00 Build 0)  -->
<svg version="1.1" id="Capa_1" xmlns="http://www.w3.org/2000/svg" xmlns:xlink="http://www.w3.org/1999/xlink" x="0px" y="0px"
	 viewBox="0 0 512.5 512.5" style="enable-background:new 0 0 512.5 512.5;" xml:space="preserve">
<g>
	<path style="fill:#415A6B;" d="M16.52,346.917v21.333h35.2v-21.333c0-44.8,1.067-89.6,4.267-134.4
		c1.067-10.667,1.067-22.4,1.067-35.2c0-78.933-4.267-107.733-9.6-118.4h-25.6c-6.4,10.667-10.667,39.467-10.667,118.4
		c0,11.733,0,23.467,1.067,35.2C14.387,257.317,16.52,302.117,16.52,346.917z"/>
	<path style="fill:#415A6B;" d="M50.653,368.25v6.4c0,33.067-6.4,66.133-17.067,97.067c-11.733-30.933-17.067-64-17.067-97.067v-6.4
		H50.653z"/>
</g>
<g>
	<path style="fill:#F3705A;" d="M16.52,375.717c0,8.533,0,17.067,1.067,25.6h32c1.067-8.533,1.067-17.067,1.067-25.6
		c0,0,0-41.6,0-48H16.52C16.52,334.117,16.52,375.717,16.52,375.717z"/>
	<path style="fill:#F3705A;" d="M43.187,49.317v9.6h-19.2v-9.6c0-5.333,4.267-9.6,9.6-9.6C38.92,40.784,43.187,43.984,43.187,49.317
		z"/>
	<path style="fill:#F3705A;" d="M54.92,132.517c-5.333-8.533-12.8-13.867-21.333-13.867s-17.067,5.333-21.333,13.867
		c0-12.8,1.067-22.4,1.067-32c3.2-5.333,7.467-10.667,9.6-17.067c2.133-5.333,6.4-8.533,10.667-8.533s8.533,3.2,10.667,9.6
		c2.133,5.333,6.4,11.733,9.6,17.067C54.92,110.117,54.92,120.784,54.92,132.517z"/>
	<ellipse style="fill:#F3705A;" cx="33.587" cy="159.184" rx="9.6" ry="73.6"/>
</g>
<path style="fill:#CED6E0;" d="M500.787,89.85l-69.333,395.733c-3.2,17.067-19.2,28.8-37.333,26.667l-297.6-52.267
	c-17.067-3.2-28.8-19.2-26.667-37.333l69.333-395.733c3.2-17.067,19.2-28.8,37.333-26.667l298.667,52.267
	C492.253,55.717,503.987,72.784,500.787,89.85z"/>
<path style="fill:#E8EAE9;" d="M439.987,23.717H192.52l-90.667,90.667v345.6c0,16,12.8,28.8,28.8,28.8h309.333
	c16,0,28.8-12.8,28.8-28.8V52.517C469.853,36.517,455.987,23.717,439.987,23.717z"/>
<g>
	<rect x="145.587" y="419.45" style="fill:#ADB3BA;" width="280.533" height="18.133"/>
	<rect x="145.587" y="373.584" style="fill:#ADB3BA;" width="280.533" height="18.133"/>
	<rect x="145.587" y="328.784" style="fill:#ADB3BA;" width="178.133" height="18.133"/>
</g>
<path style="fill:#415A6B;" d="M370.654,238.117c-4.267,0-8.533-4.267-8.533-8.533V129.317h-153.6v100.267
	c0,4.267-4.267,8.533-8.533,8.533s-8.533-4.267-8.533-8.533v-108.8c0-4.267,4.267-8.533,8.533-8.533h170.667
	c4.267,0,8.533,4.267,8.533,8.533v108.8C379.187,234.917,374.92,238.117,370.654,238.117z"/>
<rect x="157.32" y="194.384" style="fill:#F3705A;" width="85.333" height="85.333"/>
<rect x="327.987" y="194.384" style="fill:#66C6B9;" width="85.333" height="85.333"/>
<rect x="242.653" y="78.117" style="fill:#FFD15C;" width="85.333" height="85.333"/>
<path style="fill:#ADB3BA;" d="M160.52,114.384c18.133,0,32-14.933,32-32V23.717l-90.667,90.667H160.52z"/>
<g>
</g>
<g>
</g>
<g>
</g>
<g>
</g>
<g>
</g>
<g>
</g>
<g>
</g>
<g>
</g>
<g>
</g>
<g>
</g>
<g>
</g>
<g>
</g>
<g>
</g>
<g>
</g>
<g>
</g>
</svg>
