<?xml version="1.0" encoding="iso-8859-1"?>
<!-- Generator: Adobe Illustrator 19.0.0, SVG Export Plug-In . SVG Version: 6.00 Build 0)  -->
<svg version="1.1" id="Capa_1" xmlns="http://www.w3.org/2000/svg" xmlns:xlink="http://www.w3.org/1999/xlink" x="0px" y="0px"
	 viewBox="0 0 512 512" style="enable-background:new 0 0 512 512;" xml:space="preserve">
<path style="fill:#ADB3BA;" d="M463.467,30.933v409.6c0,17.067-13.867,30.933-30.933,30.933H121.067
	c-17.067,0-30.933-13.867-30.933-30.933v-409.6C90.133,13.867,104,0,121.067,0H433.6C449.6,0,463.467,13.867,463.467,30.933z"/>
<path style="fill:#E8EAE9;" d="M422.933,71.467v409.6C422.933,498.133,409.067,512,392,512H79.467
	c-17.067,0-30.933-13.867-30.933-30.933v-409.6c0-17.067,13.867-30.933,30.933-30.933H392
	C409.067,40.533,422.933,54.4,422.933,71.467z"/>
<g>
	<rect x="245.867" y="93.867" style="fill:#ADB3BA;" width="130.133" height="29.867"/>
	<rect x="245.867" y="178.133" style="fill:#ADB3BA;" width="130.133" height="29.867"/>
	<rect x="96.533" y="261.333" style="fill:#ADB3BA;" width="279.467" height="29.867"/>
	<rect x="96.533" y="344.533" style="fill:#ADB3BA;" width="279.467" height="29.867"/>
	<rect x="96.533" y="427.733" style="fill:#ADB3BA;" width="139.733" height="29.867"/>
</g>
<path style="fill:#66C6B9;" d="M294.933,469.333c-3.2,0-5.333-1.067-7.467-3.2L260.8,439.467c-4.267-4.267-4.267-10.667,0-14.933
	c4.267-4.267,10.667-4.267,14.933,0l19.2,19.2l48-48c4.267-4.267,10.667-4.267,14.933,0c4.267,4.267,4.267,10.667,0,14.933
	L302.4,466.133C300.267,468.267,298.133,469.333,294.933,469.333z"/>
<rect x="96.533" y="93.867" style="fill:#F3705A;" width="114.133" height="114.133"/>
<g>
</g>
<g>
</g>
<g>
</g>
<g>
</g>
<g>
</g>
<g>
</g>
<g>
</g>
<g>
</g>
<g>
</g>
<g>
</g>
<g>
</g>
<g>
</g>
<g>
</g>
<g>
</g>
<g>
</g>
</svg>
