<svg height="512" viewBox="0 0 56 56" width="512" xmlns="http://www.w3.org/2000/svg"><g id="Page-1" fill="none" fill-rule="evenodd"><g id="030---Messy-Books" fill="rgb(0,0,0)" fill-rule="nonzero"><path id="Shape" d="m45.242 37.048-31.273-5.514c-.5433305-.0950163-1.0609977.2678428-1.157.811-.0956696.5433534.2667876 1.0615329.81 1.158l31.514 5.557c1.1820078.2075911 2.2083536.9349251 2.7959056 1.9813567s.6742196 2.3013775.2360944 3.4186433c-.7324036 1.7973243-2.6322314 2.8272001-4.538 2.46l-31.4-5.536c-.0577749-.01028-.1163188-.0156326-.175-.016-.520683-.002244-.9559559.395437-1.0006233.9142054-.0446673.5187684.3162203.9850009.8296233 1.0717946l31.516 5.554c1.7033513.2980393 3.4525356-.1521794 4.8003298-1.2355463s2.1635395-2.6948576 2.2386702-4.4224537c.0666126-3.0775662-2.1552544-5.7290996-5.197-6.202z"/><path id="Shape" d="m9.879 49.006c-.3019222.5275467-.34755054 1.1637676-.124 1.729.3994408.8988835 1.3681424 1.4012962 2.333 1.21l18.5-3.264-11.54-2.035-7.774 1.379c-.5885992.1012203-1.1006708.4613223-1.395.981z"/><path id="Shape" d="m9.105 41.845c.21409241-1.2527723 1.203531-2.2293349 2.459-2.427l.758-4.3c-1.1016619-.6230817-1.6937784-1.8705272-1.48-3.118l3.721-21.106-9.309 1.641c-1.61858233.2227319-3.07676565 1.0947317-4.03886275 2.4152571-.96209709 1.3205255-1.34520807 2.9757923-1.06113725 4.5847429l4.646 26.353c.99330927-1.5919144 2.49671737-2.8002809 4.265-3.428-.00752077-.2058255.00588133-.4118827.04-.615z"/><path id="Shape" d="m12.434 53.915c-.2463073.0432885-.4959176.0650374-.746.065-1.4371395.0332734-2.78070037-.7104366-3.51551206-1.9459643-.73481169-1.2355278-.74684577-2.7711435-.03148794-4.0180357.58877806-1.0377554 1.61137518-1.7572792 2.787-1.961l2.378-.422-1.768-.312c-.6718065-.121118-1.281356-.4700374-1.726-.988-2.55236822.8256788-4.25815631 3.2311939-4.193 5.913.06754948 1.7322862.88737504 3.348931 2.245 4.427 1.34702545 1.0790853 3.0925808 1.5277655 4.793 1.232l29.443-5.194-5.752-1.011z"/><path id="Shape" d="m46.3 43.741c.2231317-.5594481.1822587-1.1896627-.1112666-1.7156026s-.8084423-.8915922-1.4017334-.9953974l-30.528-5.383-.7 3.939 30.414 5.362c.9623816.1906257 1.9285054-.3104965 2.327-1.207z"/><path id="Shape" d="m19.124 25.335 20.682 3.646h.001l1.735-9.848-20.682-3.646z"/><path id="Shape" d="m51.038 5.6-.9 5.116c-.0843685.477481-.4991227.8256384-.984.826-.0583199-.0000697-.1165286-.0050877-.174-.015-.2612699-.0460858-.4935181-.1941055-.6456218-.4114769s-.2115949-.4862764-.1653782-.7475231l.907-5.136-29.55-5.212c-.2563574-.04911823-.5216176.00986867-.733.163-.2250569.14823911-.3791372.38261477-.426.648l-5.067 28.739c.3358835-.0595177.6794369-.0615466 1.016-.006l29.543 5.209 3.246-18.426c.0526591-.3603127.2970143-.6635201.6379069-.7915451.3408927-.128025.7244312-.0606281 1.0012555.1759444.2768242.2365725.403171.604921.3298376.9616007l-3.248 18.438c2.2503667.4543792 4.2149386 1.8139945 5.433 3.76l4.648-26.364c.0448209-.2609874.0735418-.5244851.086-.789.0676929-2.98109482-2.0266744-5.57548966-4.955-6.138zm-7.527 13.88-1.737 9.849c-.1687371.9549619-.9982454 1.6512769-1.968 1.652-.1163311.0003973-.2324632-.009643-.347-.03l-20.683-3.651c-.522356-.0924043-.9866051-.3885415-1.290606-.8232572s-.4228483-.9723957-.330394-1.4947428l1.737-9.847c.1919742-1.0872376 1.2286364-1.8132593 2.316-1.622l20.681 3.647c1.0872376.1919742 1.8132593 1.2286364 1.622 2.316zm-19.639-9.555c.0959871-.54361879.6143182-.90662963 1.158-.811l14.773 2.6c.5138125.0868279.8748237.55367.8296023 1.0728015-.0452214.5191314-.4815156.9165204-1.0026023.9131985-.0587024.0000849-.1172863-.0052713-.175-.016l-14.772-2.601c-.5436188-.0959871-.9066296-.6143182-.811-1.158zm20.566-.451c-.0586532-.00002755-.1171977-.00504565-.175-.015l-22.651-3.994c-.5111685-.12606546-.837041-.62687769-.7452297-1.14529488.0918113-.5184172.5698565-.87685619 1.0932297-.81970512l22.65 3.989c.5108329.08948831.8684834.55465053.8237134 1.07132656-.0447699.51667602-.4771014.91338641-.9957134.91367344z"/></g></g></svg>