<?xml version="1.0" encoding="iso-8859-1"?>
<!-- Generator: Adobe Illustrator 19.0.0, SVG Export Plug-In . SVG Version: 6.00 Build 0)  -->
<svg version="1.1" id="Capa_1" xmlns="http://www.w3.org/2000/svg" xmlns:xlink="http://www.w3.org/1999/xlink" x="0px" y="0px"
	 viewBox="0 0 511.999 511.999" style="enable-background:new 0 0 511.999 511.999;" xml:space="preserve">
<g>
	<g>
		<path d="M492.316,300.283c-19.638-1.88-38.22-8.245-54.791-16.44V32.128c0-6.102-1.553-12.005-4.384-17.069l1.194-0.841
			c-0.103-0.098-6.716-6.401-6.613-6.303c-5.483-5.388-12.412-8.013-19.01-7.914c-0.101,0-379.562-0.005-380.346,0.009
			C12.366,0.233,0.179,15.055,0.179,32.128v71.855c0,4.163,3.379,7.541,7.542,7.541s7.542-3.379,7.542-7.541
			c0.683-73.402-1.55-73.567,2.052-80.79c2.655,3.43-4.501-2.653,142.789,101.128c1.319,0.926,2.831,1.371,4.329,1.371
			c7.309,0,10.382-9.47,4.341-13.713L30.842,15.086c48.275,0,337.99,0,376.042,0l-184.01,129.246c-2.367,1.663-5.673,1.664-8.042,0
			l-21.374-15.014c-3.41-2.395-8.113-1.573-10.506,1.836c-2.394,3.409-1.572,8.112,1.836,10.506
			c18.675,12.044,22.945,19.025,34.063,19.025c4.566,0,8.954-1.387,12.691-4.011L420.68,23.827c3.345,7.41,1.12-2.505,1.762,251.801
			c-33.132-19.759-55.234-44.103-56.249-45.239c-15.298-17.88-38.788-24.85-62.213-22.716
			c-3.716-15.664-17.816-27.359-34.599-27.359c-19.618,0-35.566,15.958-35.566,35.566v2.725
			c-25.464,12.069-45.822,36.511-45.852,65.45c-0.04,1.448-0.915,29.643-10.84,62.745H28.716c-7.29,0-13.454-7.803-13.454-17.044
			V134.15c0-4.173-3.379-7.542-7.542-7.542s-7.542,3.369-7.542,7.542v195.606c0,17.717,12.8,32.127,28.537,32.127h143.338
			c-7.491,19.96-18.512,40.483-34.691,57.195c-13.237,13.672-3.494,36.591,15.586,36.591h50.93
			c7.848,52.199,71.214,74.722,110.246,38.884c4.635-0.221,9.15-1.981,12.921-5.199l38.733-33.042
			c24.558,21.432,62.254,21.947,87.592-0.694c3.107-2.775,3.369-7.542,0.593-10.649s-7.542-3.369-10.649-0.593
			c-14.345,12.813-33.822,16.078-50.779,10.256c12.825-4.091,19.029-19.513,12.026-31.403l49.251-42.021
			c7.255,12.887,8.397,27.91,3.831,41.488c-1.337,3.952,0.784,8.225,4.726,9.563c3.9,1.316,8.214-0.753,9.563-4.736
			c6.335-18.747,4.055-39.343-6.476-56.239l38.743-33.052C518.658,325.915,511.346,302.121,492.316,300.283z M269.38,195.396
			c9.367,0,17.263,6.324,19.687,14.921c-1.64,0.436-3.271,0.902-4.876,1.429c-11.668-2.262-23.301-1.856-35.093,1.247
			C250.506,203.059,259.053,195.396,269.38,195.396z M309.007,478.071c-27.421,33.59-81.517,19.802-89.814-22.403
			c10.113,0,89.671,0,100.362,0C317.916,464.044,314.206,471.697,309.007,478.071z M332.899,464.547
			c0.855-2.886,1.518-5.852,1.971-8.879h8.436L332.899,464.547z M385.8,440.586c-68.952,0-164.173,0-232.851,0
			c-5.766,0-8.706-6.92-4.746-11.011c19.397-20.05,31.946-44.555,40.04-67.692c14.275-40.591,14.79-77.641,14.801-77.748
			c0-37.449,50.991-76.23,99.206-49.784c35.634,19.599,33.395,49.738,33.464,49.925c0.245,14.954,3.622,39.62,10.035,62.524
			c7.581,26.862,19.51,53.154,37.567,74.731c7.149,8.592,8.883,8.659,9.05,12.107C392.54,436.986,390.041,440.586,385.8,440.586z
			 M494.417,326.759c-11.543,9.848-99.211,84.638-99.608,84.977c-28.243-33.897-42.855-87.515-44.012-127.682
			c-0.04-26.001-16.453-48.521-38.763-61.679c0.797,0.156,26.361-1.331,42.735,17.868c31.768,35.48,84.683,70.151,136.109,75.053
			C496.591,315.852,498.772,323.035,494.417,326.759z"/>
	</g>
</g>
<g>
</g>
<g>
</g>
<g>
</g>
<g>
</g>
<g>
</g>
<g>
</g>
<g>
</g>
<g>
</g>
<g>
</g>
<g>
</g>
<g>
</g>
<g>
</g>
<g>
</g>
<g>
</g>
<g>
</g>
</svg>
